dataset
version=1
nRows=28
nColumns=39
inDegrees=no
endheader
time	sternoclavicular_r2	sternoclavicular_r3	unrotscap_r3	unrotscap_r2	acromioclavicular_r2	acromioclavicular_r3	acromioclavicular_r1	unrothum_r1	unrothum_r3	unrothum_r2	elv_angle	shoulder_elv	shoulder1_r2	shoulder_rot	elbow_flexion	pro_sup	deviation	flexion	cmc_abduction	cmc_flexion	mp_flexion	ip_flexion	mcp2_flexion	mcp2_abduction	pm2_flexion	md2_flexion	mcp3_flexion	mcp3_abduction	pm3_flexion	md3_flexion	mcp4_flexion	mcp4_abduction	pm4_flexion	md4_flexion	mcp5_flexion	mcp5_abduction	pm5_flexion	md5_flexion
2.945000	-0.053641	-0.209523	0.053411	0.194773	0.165050	0.163750	0.007337	-0.077190	0.248349	0.205160	0.239960	0.027437	0.146525	0.146525	1.647710	1.309658	0.000000	0.000000	0.000000	0.000000	0.000000	0.000000	0.000000	0.000000	0.000000	0.000000	0.000000	0.000000	0.000000	0.000000	0.000000	0.000000	0.000000	0.000000	0.000000	0.000000	0.000000	0.000000
2.950000	-0.053716	-0.209047	0.053106	0.195343	0.165707	0.163385	0.007551	-0.076725	0.248135	0.205657	0.240495	0.027437	0.146525	0.146525	1.642992	1.309785	0.000000	0.000000	0.000000	0.000000	0.000000	0.000000	0.000000	0.000000	0.000000	0.000000	0.000000	0.000000	0.000000	0.000000	0.000000	0.000000	0.000000	0.000000	0.000000	0.000000	0.000000	0.000000
2.955000	-0.053789	-0.208580	0.052809	0.195902	0.166350	0.163031	0.007759	-0.076254	0.247920	0.206139	0.241016	0.027437	0.146525	0.146525	1.638366	1.309909	0.000000	0.000000	0.000000	0.000000	0.000000	0.000000	0.000000	0.000000	0.000000	0.000000	0.000000	0.000000	0.000000	0.000000	0.000000	0.000000	0.000000	0.000000	0.000000	0.000000	0.000000	0.000000
2.960000	-0.053861	-0.208124	0.052521	0.196449	0.166980	0.162687	0.007961	-0.075779	0.247705	0.206605	0.241524	0.027437	0.146525	0.146525	1.633831	1.310030	0.000000	0.000000	0.000000	0.000000	0.000000	0.000000	0.000000	0.000000	0.000000	0.000000	0.000000	0.000000	0.000000	0.000000	0.000000	0.000000	0.000000	0.000000	0.000000	0.000000	0.000000	0.000000
2.965000	-0.053931	-0.207677	0.052241	0.196985	0.167596	0.162353	0.008158	-0.075300	0.247490	0.207057	0.242018	0.027437	0.146525	0.146525	1.629388	1.310148	0.000000	0.000000	0.000000	0.000000	0.000000	0.000000	0.000000	0.000000	0.000000	0.000000	0.000000	0.000000	0.000000	0.000000	0.000000	0.000000	0.000000	0.000000	0.000000	0.000000	0.000000	0.000000
2.970000	-0.053999	-0.207242	0.051971	0.197510	0.168199	0.162028	0.008349	-0.074819	0.247275	0.207495	0.242498	0.027437	0.146525	0.146525	1.625039	1.310263	0.000000	0.000000	0.000000	0.000000	0.000000	0.000000	0.000000	0.000000	0.000000	0.000000	0.000000	0.000000	0.000000	0.000000	0.000000	0.000000	0.000000	0.000000	0.000000	0.000000	0.000000	0.000000
2.975000	-0.054066	-0.206816	0.051709	0.198023	0.168788	0.161713	0.008533	-0.074336	0.247061	0.207919	0.242966	0.027437	0.146525	0.146525	1.620782	1.310375	0.000000	0.000000	0.000000	0.000000	0.000000	0.000000	0.000000	0.000000	0.000000	0.000000	0.000000	0.000000	0.000000	0.000000	0.000000	0.000000	0.000000	0.000000	0.000000	0.000000	0.000000	0.000000
2.980000	-0.054130	-0.206402	0.051456	0.198526	0.169365	0.161406	0.008712	-0.073854	0.246848	0.208331	0.243422	0.027437	0.146525	0.146525	1.616620	1.310483	0.000000	0.000000	0.000000	0.000000	0.000000	0.000000	0.000000	0.000000	0.000000	0.000000	0.000000	0.000000	0.000000	0.000000	0.000000	0.000000	0.000000	0.000000	0.000000	0.000000	0.000000	0.000000
2.985000	-0.054193	-0.205999	0.051212	0.199019	0.169929	0.161109	0.008883	-0.073372	0.246636	0.208730	0.243865	0.027437	0.146525	0.146525	1.612551	1.310588	0.000000	0.000000	0.000000	0.000000	0.000000	0.000000	0.000000	0.000000	0.000000	0.000000	0.000000	0.000000	0.000000	0.000000	0.000000	0.000000	0.000000	0.000000	0.000000	0.000000	0.000000	0.000000
2.990000	-0.054253	-0.205607	0.050976	0.199500	0.170480	0.160819	0.009049	-0.072892	0.246425	0.209118	0.244297	0.027437	0.146525	0.146525	1.608575	1.310690	0.000000	0.000000	0.000000	0.000000	0.000000	0.000000	0.000000	0.000000	0.000000	0.000000	0.000000	0.000000	0.000000	0.000000	0.000000	0.000000	0.000000	0.000000	0.000000	0.000000	0.000000	0.000000
2.995000	-0.054312	-0.205226	0.050749	0.199972	0.171019	0.160539	0.009208	-0.072416	0.246216	0.209494	0.244718	0.027437	0.146525	0.146525	1.604694	1.310789	0.000000	0.000000	0.000000	0.000000	0.000000	0.000000	0.000000	0.000000	0.000000	0.000000	0.000000	0.000000	0.000000	0.000000	0.000000	0.000000	0.000000	0.000000	0.000000	0.000000	0.000000	0.000000
3.000000	-0.054368	-0.204857	0.050531	0.200433	0.171545	0.160266	0.009360	-0.071944	0.246009	0.209860	0.245128	0.027437	0.146525	0.146525	1.600906	1.310885	0.000000	0.000000	0.000000	0.000000	0.000000	0.000000	0.000000	0.000000	0.000000	0.000000	0.000000	0.000000	0.000000	0.000000	0.000000	0.000000	0.000000	0.000000	0.000000	0.000000	0.000000	0.000000
3.005000	-0.054422	-0.204499	0.050322	0.200884	0.172060	0.160000	0.009506	-0.071477	0.245804	0.210217	0.245528	0.027437	0.146525	0.146525	1.597212	1.310978	0.000000	0.000000	0.000000	0.000000	0.000000	0.000000	0.000000	0.000000	0.000000	0.000000	0.000000	0.000000	0.000000	0.000000	0.000000	0.000000	0.000000	0.000000	0.000000	0.000000	0.000000	0.000000
3.010000	-0.054474	-0.204152	0.050121	0.201325	0.172564	0.159742	0.009645	-0.071016	0.245601	0.210563	0.245917	0.027437	0.146525	0.146525	1.593610	1.311067	0.000000	0.000000	0.000000	0.000000	0.000000	0.000000	0.000000	0.000000	0.000000	0.000000	0.000000	0.000000	0.000000	0.000000	0.000000	0.000000	0.000000	0.000000	0.000000	0.000000	0.000000	0.000000
3.015000	-0.054524	-0.203817	0.049928	0.201756	0.173056	0.159492	0.009777	-0.070562	0.245401	0.210902	0.246298	0.027437	0.146525	0.146525	1.590102	1.311153	0.000000	0.000000	0.000000	0.000000	0.000000	0.000000	0.000000	0.000000	0.000000	0.000000	0.000000	0.000000	0.000000	0.000000	0.000000	0.000000	0.000000	0.000000	0.000000	0.000000	0.000000	0.000000
3.020000	-0.054572	-0.203493	0.049744	0.202179	0.173537	0.159248	0.009903	-0.070117	0.245204	0.211232	0.246669	0.027437	0.146525	0.146525	1.586685	1.311236	0.000000	0.000000	0.000000	0.000000	0.000000	0.000000	0.000000	0.000000	0.000000	0.000000	0.000000	0.000000	0.000000	0.000000	0.000000	0.000000	0.000000	0.000000	0.000000	0.000000	0.000000	0.000000
3.025000	-0.054618	-0.203180	0.049568	0.202592	0.174007	0.159010	0.010022	-0.069680	0.245010	0.211555	0.247033	0.027437	0.146525	0.146525	1.583360	1.311316	0.000000	0.000000	0.000000	0.000000	0.000000	0.000000	0.000000	0.000000	0.000000	0.000000	0.000000	0.000000	0.000000	0.000000	0.000000	0.000000	0.000000	0.000000	0.000000	0.000000	0.000000	0.000000
3.030000	-0.054661	-0.202879	0.049399	0.202996	0.174467	0.158780	0.010135	-0.069252	0.244819	0.211870	0.247388	0.027437	0.146525	0.146525	1.580125	1.311393	0.000000	0.000000	0.000000	0.000000	0.000000	0.000000	0.000000	0.000000	0.000000	0.000000	0.000000	0.000000	0.000000	0.000000	0.000000	0.000000	0.000000	0.000000	0.000000	0.000000	0.000000	0.000000
3.035000	-0.054702	-0.202590	0.049239	0.203392	0.174917	0.158555	0.010241	-0.068836	0.244632	0.212180	0.247735	0.027437	0.146525	0.146525	1.576981	1.311467	0.000000	0.000000	0.000000	0.000000	0.000000	0.000000	0.000000	0.000000	0.000000	0.000000	0.000000	0.000000	0.000000	0.000000	0.000000	0.000000	0.000000	0.000000	0.000000	0.000000	0.000000	0.000000
3.040000	-0.054741	-0.202311	0.049087	0.203779	0.175357	0.158336	0.010342	-0.068430	0.244449	0.212483	0.248075	0.027437	0.146525	0.146525	1.573925	1.311537	0.000000	0.000000	0.000000	0.000000	0.000000	0.000000	0.000000	0.000000	0.000000	0.000000	0.000000	0.000000	0.000000	0.000000	0.000000	0.000000	0.000000	0.000000	0.000000	0.000000	0.000000	0.000000
3.045000	-0.054778	-0.202044	0.048942	0.204159	0.175787	0.158123	0.010435	-0.068036	0.244270	0.212781	0.248409	0.027437	0.146525	0.146525	1.570958	1.311605	0.000000	0.000000	0.000000	0.000000	0.000000	0.000000	0.000000	0.000000	0.000000	0.000000	0.000000	0.000000	0.000000	0.000000	0.000000	0.000000	0.000000	0.000000	0.000000	0.000000	0.000000	0.000000
3.050000	-0.054813	-0.201787	0.048804	0.204530	0.176209	0.157916	0.010523	-0.067654	0.244096	0.213075	0.248737	0.027437	0.146525	0.146525	1.568078	1.311669	0.000000	0.000000	0.000000	0.000000	0.000000	0.000000	0.000000	0.000000	0.000000	0.000000	0.000000	0.000000	0.000000	0.000000	0.000000	0.000000	0.000000	0.000000	0.000000	0.000000	0.000000	0.000000
3.055000	-0.054846	-0.201542	0.048674	0.204895	0.176622	0.157714	0.010605	-0.067285	0.243926	0.213364	0.249058	0.027437	0.146525	0.146525	1.565285	1.311730	0.000000	0.000000	0.000000	0.000000	0.000000	0.000000	0.000000	0.000000	0.000000	0.000000	0.000000	0.000000	0.000000	0.000000	0.000000	0.000000	0.000000	0.000000	0.000000	0.000000	0.000000	0.000000
3.060000	-0.054876	-0.201307	0.048550	0.205252	0.177026	0.157517	0.010681	-0.066929	0.243761	0.213650	0.249375	0.027437	0.146525	0.146525	1.562576	1.311788	0.000000	0.000000	0.000000	0.000000	0.000000	0.000000	0.000000	0.000000	0.000000	0.000000	0.000000	0.000000	0.000000	0.000000	0.000000	0.000000	0.000000	0.000000	0.000000	0.000000	0.000000	0.000000
3.065000	-0.054905	-0.201083	0.048434	0.205602	0.177422	0.157324	0.010751	-0.066588	0.243601	0.213932	0.249686	0.027437	0.146525	0.146525	1.559951	1.311844	0.000000	0.000000	0.000000	0.000000	0.000000	0.000000	0.000000	0.000000	0.000000	0.000000	0.000000	0.000000	0.000000	0.000000	0.000000	0.000000	0.000000	0.000000	0.000000	0.000000	0.000000	0.000000
3.070000	-0.054932	-0.200870	0.048324	0.205946	0.177811	0.157137	0.010815	-0.066260	0.243446	0.214212	0.249993	0.027437	0.146525	0.146525	1.557409	1.311896	0.000000	0.000000	0.000000	0.000000	0.000000	0.000000	0.000000	0.000000	0.000000	0.000000	0.000000	0.000000	0.000000	0.000000	0.000000	0.000000	0.000000	0.000000	0.000000	0.000000	0.000000	0.000000
3.075000	-0.054956	-0.200667	0.048221	0.206283	0.178192	0.156954	0.010874	-0.065947	0.243296	0.214489	0.250296	0.027437	0.146525	0.146525	1.554949	1.311945	0.000000	0.000000	0.000000	0.000000	0.000000	0.000000	0.000000	0.000000	0.000000	0.000000	0.000000	0.000000	0.000000	0.000000	0.000000	0.000000	0.000000	0.000000	0.000000	0.000000	0.000000	0.000000
3.080000	-0.054979	-0.200474	0.048124	0.206615	0.178567	0.156776	0.010928	-0.065649	0.243152	0.214764	0.250596	0.027437	0.146525	0.146525	1.552568	1.311991	0.000000	0.000000	0.000000	0.000000	0.000000	0.000000	0.000000	0.000000	0.000000	0.000000	0.000000	0.000000	0.000000	0.000000	0.000000	0.000000	0.000000	0.000000	0.000000	0.000000	0.000000	0.000000
